<svg width="206" height="147" viewBox="0 0 206 147" fill="none" xmlns="http://www.w3.org/2000/svg">
<g clip-path="url(#clip0)">
<path d="M181.182 2.8754L178.951 3.06301C177.494 3.25442 175.364 3.30332 172.625 3.69095C169.885 4.07857 166.575 4.51965 162.756 5.16074L156.821 6.37203C154.725 6.83583 152.536 7.4075 150.27 8.02537C145.73 9.29195 140.837 10.7386 135.792 12.6849C130.486 14.674 125.284 16.9283 120.205 19.4393C114.757 22.1115 109.451 25.0644 104.309 28.2864C98.974 31.5983 93.8258 35.2022 88.888 39.0818C83.938 42.9663 79.2088 47.1243 74.7224 51.5363C70.3614 55.8263 66.2504 60.3632 62.4094 65.1245C60.5659 67.4547 58.7409 69.7371 57.1133 72.1215C55.4856 74.5059 53.8581 76.7592 52.3586 78.9987C50.859 81.2382 49.5599 83.5936 48.2147 85.7408C46.8695 87.8879 45.7863 90.1664 44.7372 92.3354C43.6881 94.5044 42.6576 96.4945 41.8368 98.511C41.0161 100.528 40.1754 102.388 39.4813 104.188L37.6909 109.258C37.1512 110.834 36.7642 112.376 36.3436 113.634C35.923 114.892 35.5856 116.132 35.3534 117.188L34.7156 119.834L34.2139 122.042C34.1554 122.21 34.1305 122.388 34.1407 122.565C34.1509 122.743 34.196 122.916 34.2733 123.076C34.3506 123.236 34.4587 123.38 34.5914 123.498C34.7241 123.616 34.8788 123.707 35.0466 123.766C35.2144 123.824 35.3922 123.849 35.5696 123.839C35.7471 123.829 35.9208 123.784 36.0808 123.706C36.2408 123.629 36.384 123.521 36.5023 123.388C36.6206 123.255 36.7115 123.101 36.77 122.933L37.671 120.884C38.2659 119.558 39.0203 117.571 40.17 115.132L41.9919 111.059L44.2664 106.333C45.8965 102.972 47.8677 99.2447 50.0783 95.2168C51.192 93.2082 52.4477 91.1828 53.6587 89.0217C54.8698 86.8605 56.2597 84.7181 57.7468 82.5541C60.5654 78.115 63.8405 73.6331 67.3208 69.0913C68.19 67.9523 69.1241 66.8428 70.0381 65.7085C70.9521 64.5742 71.88 63.4369 72.8588 62.332L75.7658 58.951L78.8193 55.6395C83.001 51.1866 87.4112 46.954 92.0321 42.9589C96.62 38.8861 101.43 35.0702 106.439 31.5287C111.319 28.1383 116.396 25.0407 121.643 22.2523C122.942 21.5425 124.253 20.8883 125.46 20.2864L129.26 18.4407C131.812 17.3373 134.293 16.1768 136.783 15.32C141.699 13.2565 146.48 11.7618 150.935 10.4412C153.17 9.8156 155.333 9.32255 157.372 8.79855L163.249 7.58566L168.444 6.71298C170.068 6.4847 171.503 6.3858 172.918 6.2036C175.567 5.86524 177.732 5.77936 179.183 5.69127L181.37 5.57148C181.707 5.52453 182.013 5.35264 182.228 5.09005C182.443 4.82746 182.552 4.49342 182.532 4.15446C182.512 3.81549 182.365 3.49645 182.121 3.26086C181.876 3.02527 181.552 2.89041 181.212 2.88314L181.182 2.8754Z" fill="#2B2B2B"/>
<path d="M20.3622 110.836C20.8498 112.184 21.2218 113.471 21.6247 114.765C22.0276 116.059 22.3009 117.426 22.5988 118.773C23.178 121.458 23.5993 124.176 23.8606 126.911C24.0012 128.336 24.0725 129.646 24.1283 131.017C24.1841 132.388 24.1674 133.76 24.1616 135.116C24.0974 137.854 23.9098 140.56 23.5635 143.273C23.4948 143.733 23.5592 144.204 23.749 144.63C23.9388 145.055 24.2462 145.417 24.6349 145.674C25.0237 145.931 25.4776 146.071 25.9434 146.079C26.4091 146.086 26.8673 145.96 27.264 145.716L27.6112 145.508L30.7468 143.489C31.7961 142.835 32.8546 142.222 33.8869 141.557C34.9193 140.891 35.9747 140.265 37.007 139.599L40.1071 137.617C42.1718 136.287 44.1764 134.882 46.1425 133.369C48.1468 131.851 50.0256 130.174 51.7607 128.354C52.0142 128.062 52.1458 127.684 52.128 127.297C52.1103 126.911 51.9447 126.546 51.6654 126.278C51.5057 126.111 51.3077 125.986 51.0885 125.912C50.8692 125.839 50.6355 125.82 50.4074 125.858C49.1623 126.182 47.9374 126.58 46.7389 127.048C45.5603 127.513 44.3908 128.019 43.2584 128.561C40.9887 129.642 38.7951 130.877 36.693 132.256C34.5959 133.638 32.5219 135.058 30.5187 136.535C28.5156 138.012 26.5571 139.625 24.6464 141.256L28.6757 143.409C28.6184 141.965 28.5195 140.531 28.3928 139.102C28.2661 137.674 28.1116 136.252 27.9433 134.833C27.7749 133.414 27.5649 132.004 27.3688 130.591C27.1727 129.178 26.935 127.774 26.6972 126.371C26.4594 124.967 26.18 123.573 25.9145 122.175L24.993 118.01C24.6858 116.622 24.4619 115.215 24.0715 113.845L23.15 109.68C23.0372 109.321 22.7866 109.021 22.4531 108.846C22.1196 108.672 21.7305 108.636 21.3711 108.748C21.0029 108.83 20.6822 109.054 20.4794 109.372C20.2767 109.69 20.2086 110.076 20.29 110.444C20.29 110.444 20.3483 110.839 20.3622 110.836Z" fill="#2B2B2B"/>
</g>
<defs>
<clipPath id="clip0">
<rect width="185.535" height="108.151" fill="white" transform="matrix(-0.976388 0.216027 0.216027 0.976388 181.918 0.818909)"/>
</clipPath>
</defs>
</svg>
