<svg width="24" height="13" viewBox="0 0 24 13" fill="none" xmlns="http://www.w3.org/2000/svg">
<path fill-rule="evenodd" clip-rule="evenodd" d="M6.42865 1.31603V4.64598C6.42637 4.76673 6.44818 4.88672 6.49282 4.99894C6.53746 5.11116 6.60402 5.21335 6.68862 5.29954C6.77321 5.38573 6.87414 5.4542 6.98551 5.50092C7.09687 5.54765 7.21644 5.57171 7.33721 5.57169H16.6628C16.7836 5.57171 16.9031 5.54765 17.0145 5.50092C17.1259 5.4542 17.2268 5.38573 17.3114 5.29954C17.396 5.21335 17.4625 5.11116 17.5072 4.99894C17.5518 4.88672 17.5736 4.76673 17.5714 4.64598V1.31603C17.5658 1.07879 17.4676 0.853166 17.2978 0.687385C17.128 0.521604 16.9001 0.428828 16.6628 0.428894H7.33721C7.09991 0.428828 6.872 0.521604 6.70222 0.687385C6.53243 0.853166 6.43424 1.07879 6.42865 1.31603ZM10.2343 12.4287H0.908722C0.787951 12.4288 0.668389 12.4047 0.557025 12.358C0.445661 12.3112 0.344731 12.2428 0.260135 12.1566C0.17554 12.0704 0.108977 11.9682 0.0643388 11.856C0.0197007 11.7438 -0.00211693 11.6238 0.000161749 11.503V8.17308C0.00575839 7.93585 0.103947 7.71022 0.273732 7.54444C0.443517 7.37866 0.671424 7.28588 0.908722 7.28595H10.2343C10.4716 7.28588 10.6995 7.37866 10.8693 7.54444C11.0391 7.71022 11.1373 7.93585 11.1429 8.17308V11.503C11.1452 11.6238 11.1233 11.7438 11.0787 11.856C11.0341 11.9682 10.9675 12.0704 10.8829 12.1566C10.7983 12.2428 10.6974 12.3112 10.586 12.358C10.4746 12.4047 10.3551 12.4288 10.2343 12.4287ZM13.7657 7.28595H23.0913C23.3286 7.28588 23.5565 7.37866 23.7263 7.54444C23.8961 7.71022 23.9942 7.93585 23.9998 8.17308V11.503C24.0021 11.6238 23.9803 11.7438 23.9357 11.856C23.891 11.9682 23.8245 12.0704 23.7399 12.1566C23.6553 12.2428 23.5543 12.3112 23.443 12.358C23.3316 12.4047 23.2121 12.4288 23.0913 12.4287H13.7657C13.6449 12.4288 13.5254 12.4047 13.414 12.358C13.3026 12.3112 13.2017 12.2428 13.1171 12.1566C13.0325 12.0704 12.9659 11.9682 12.9213 11.856C12.8767 11.7438 12.8548 11.6238 12.8571 11.503V8.17308C12.8627 7.93585 12.9609 7.71022 13.1307 7.54444C13.3005 7.37866 13.5284 7.28588 13.7657 7.28595Z" fill="#2B2B2B"/>
</svg>
