<svg width="40" height="40" viewBox="0 0 40 40" fill="none" xmlns="http://www.w3.org/2000/svg">
<path d="M23.5376 20.0004L39.2671 4.27026C40.2443 3.29379 40.2443 1.70944 39.2671 0.732973C38.2898 -0.244324 36.7072 -0.244324 35.7299 0.732973L20.0004 16.4631L4.27008 0.732973C3.29282 -0.244324 1.7102 -0.244324 0.732943 0.732973C-0.244314 1.70944 -0.244314 3.29379 0.732943 4.27026L16.4633 20.0004L0.732943 35.7306C-0.244314 36.707 -0.244314 38.2914 0.732943 39.2679C1.22157 39.7557 1.86196 40 2.50151 40C3.14106 40 3.78145 39.7557 4.27008 39.267L20.0004 23.5369L35.7299 39.267C36.2185 39.7557 36.8589 40 37.4985 40C38.138 40 38.7784 39.7557 39.2671 39.267C40.2443 38.2906 40.2443 36.7062 39.2671 35.7297L23.5376 20.0004Z" fill="white"/>
</svg>
