<svg width="26" height="26" viewBox="0 0 26 26" fill="#fff" xmlns="http://www.w3.org/2000/svg">
<path d="M19.8552 11.8511C19.7148 11.5603 19.4062 11.375 19.0665 11.375H15.5998V0.8125C15.5998 0.364 15.2116 0 14.7332 0H11.2665C10.7881 0 10.3998 0.364 10.3998 0.8125V11.375H6.93318C6.59345 11.375 6.28491 11.5619 6.14451 11.8511C6.00238 12.142 6.05785 12.4816 6.28145 12.7221L12.3481 19.2221C12.5128 19.3993 12.7502 19.5 12.9998 19.5C13.2494 19.5 13.4869 19.3976 13.6516 19.2221L19.7182 12.7221C19.9436 12.4832 19.9956 12.142 19.8552 11.8511Z" fill="#fff"/>
<path d="M22.5333 17.875V22.75H3.46667V17.875H0V24.375C0 25.2736 0.776533 26 1.73333 26H24.2667C25.2252 26 26 25.2736 26 24.375V17.875H22.5333Z" fill="#fff"/>
</svg>
