<svg width="40" height="64" viewBox="0 0 40 64" fill="none" xmlns="http://www.w3.org/2000/svg">
<path d="M0.136719 44.137C0.136719 55.1067 9.02934 63.9991 19.9988 63.9991C30.9683 63.9991 39.861 55.1067 39.861 44.137C39.861 33.1025 34.3437 24.2749 38.0455 16.5508C38.0455 16.5508 32.1367 17.6543 28.8265 26.4818C28.8265 26.4818 17.792 15.4473 22.4022 -0.000976562C22.4022 -0.000976562 11.1713 4.41277 12.3458 18.7576C13.3531 31.0584 11.1713 33.1025 11.1713 33.1025C11.1713 23.1715 3.40697 18.7576 3.40697 18.7576C5.65397 30.8956 0.136719 34.206 0.136719 44.137Z" fill="#FF3B00"/>
<path d="M34.3384 48.8406C34.3384 57.1022 27.9592 64.1551 19.6991 63.9957C11.9256 63.846 6.14199 57.9315 6.76012 50.2056C7.03599 46.7574 9.65662 41.1711 13.9325 35.516L16.7831 37.2401C16.691 30.2517 20.0014 20.9644 20.0014 20.9644C22.1759 30.7497 34.3384 33.2861 34.3384 48.8406Z" fill="#FFD83B"/>
<path d="M14.4823 41.9302C13.3788 48.5509 11.1719 50.9613 11.1719 55.1716C11.1719 59.5854 15.1243 63.9992 19.9995 63.9992C24.91 63.9992 28.8406 59.9871 28.827 55.0766C28.7901 41.8881 21.103 35.3096 21.103 35.3096C22.2065 41.9303 18.8961 45.2406 18.8961 45.2406C17.5171 43.1723 14.4823 41.9302 14.4823 41.9302Z" fill="white"/>
</svg>
