<svg width="28" height="28" viewBox="0 0 28 28" fill="none" xmlns="http://www.w3.org/2000/svg">
<path d="M15.5547 14.7778V28.0001H24.6288C25.6305 28.0001 26.4436 27.1538 26.4436 26.1112V14.7778H15.5547Z" fill="#FF3B00"/>
<path d="M1.55469 14.7778V26.1112C1.55469 27.1538 2.36954 28.0001 3.3695 28.0001H12.4436V14.7778H1.55469Z" fill="#FF3B00"/>
<path d="M26.25 7.53993H20.713C21.1103 7.24634 21.4515 6.95465 21.6895 6.69327C23.1017 5.15715 23.1017 2.65695 21.6895 1.12083C20.3175 -0.375504 17.927 -0.371716 16.5568 1.12083C15.7973 1.94477 13.7847 5.29921 14.063 7.53993H13.937C14.2135 5.29921 12.201 1.94477 11.4432 1.12083C10.0712 -0.371716 7.68075 -0.371716 6.3105 1.12083C4.9 2.65695 4.9 5.15715 6.30875 6.69327C6.5485 6.95465 6.88975 7.24634 7.287 7.53993H1.75C0.78575 7.53993 0 8.39038 0 9.43403V12.2752C0 12.7979 0.392 13.2222 0.875 13.2222H12.25V9.43403H15.75V13.2222H27.125C27.608 13.2222 28 12.7979 28 12.2752V9.43403C28 8.39038 27.216 7.53993 26.25 7.53993ZM12.1467 7.47742C12.1467 7.47742 12.0732 7.53993 11.823 7.53993C10.6138 7.53993 8.3055 6.17997 7.55125 5.35793C6.818 4.55862 6.818 3.25548 7.55125 2.45617C7.9065 2.06978 8.37725 1.85764 8.87775 1.85764C9.3765 1.85764 9.84725 2.06978 10.2025 2.45617C11.382 3.74037 12.5545 7.02095 12.1467 7.47742ZM16.1753 7.53993C15.9268 7.53993 15.8533 7.47932 15.8533 7.47742C15.4455 7.02095 16.618 3.74037 17.7975 2.45617C18.5028 1.68527 19.7365 1.68149 20.4488 2.45617C21.1838 3.25548 21.1838 4.55862 20.4488 5.35793C19.6945 6.17997 17.3862 7.53993 16.1753 7.53993Z" fill="#FF3B00"/>
</svg>
