<svg width="36" height="36" viewBox="0 0 36 36" fill="none" xmlns="http://www.w3.org/2000/svg">
<path d="M20 19V36H31.6667C32.9547 36 34 34.912 34 33.5714V19H20Z" fill="white"/>
<path d="M2 19V33.5714C2 34.912 3.04767 36 4.33333 36H16V19H2Z" fill="white"/>
<path d="M33.75 9.6942H26.631C27.1418 9.31673 27.5805 8.9417 27.8865 8.60563C29.7022 6.63063 29.7022 3.41607 27.8865 1.44107C26.1225 -0.482791 23.049 -0.477921 21.2873 1.44107C20.3108 2.50041 17.7233 6.81327 18.081 9.6942H17.919C18.2745 6.81327 15.687 2.50041 14.7128 1.44107C12.9488 -0.477921 9.87525 -0.477921 8.1135 1.44107C6.3 3.41607 6.3 6.63063 8.11125 8.60563C8.4195 8.9417 8.85825 9.31673 9.369 9.6942H2.25C1.01025 9.6942 0 10.7876 0 12.1295V15.7824C0 16.4545 0.504 17 1.125 17H15.75V12.1295H20.25V17H34.875C35.496 17 36 16.4545 36 15.7824V12.1295C36 10.7876 34.992 9.6942 33.75 9.6942ZM15.6173 9.61383C15.6173 9.61383 15.5227 9.6942 15.201 9.6942C13.6462 9.6942 10.6785 7.94567 9.70875 6.88877C8.766 5.86108 8.766 4.18562 9.70875 3.15794C10.1655 2.66114 10.7708 2.38839 11.4142 2.38839C12.0555 2.38839 12.6607 2.66114 13.1175 3.15794C14.634 4.80905 16.1415 9.02693 15.6173 9.61383ZM20.7967 9.6942C20.4772 9.6942 20.3827 9.61627 20.3827 9.61383C19.8585 9.02693 21.366 4.80905 22.8825 3.15794C23.7892 2.16678 25.3755 2.16191 26.2913 3.15794C27.2363 4.18562 27.2363 5.86108 26.2913 6.88877C25.3215 7.94567 22.3538 9.6942 20.7967 9.6942Z" fill="white"/>
</svg>
