<svg width="26" height="20" viewBox="0 0 26 20" fill="none" xmlns="http://www.w3.org/2000/svg">
<path d="M13.6483 3.75L3.91551 11.2721C3.91551 11.2827 3.91267 11.2983 3.90698 11.3196C3.9014 11.3407 3.89844 11.3561 3.89844 11.367V18.9839C3.89844 19.2589 4.00569 19.4972 4.22013 19.6979C4.43451 19.8987 4.68838 19.9998 4.98179 19.9998H11.4814V13.9061H15.8151V20H22.3147C22.6081 20 22.8623 19.8992 23.0764 19.6979C23.2908 19.4974 23.3984 19.2589 23.3984 18.9839V11.367C23.3984 11.3247 23.3923 11.2928 23.3814 11.2721L13.6483 3.75Z" fill="#FF3B00"/>
<path d="M25.8207 9.31141L22.2891 6.59997V0.52155C22.2891 0.382592 22.2407 0.268315 22.1437 0.178877C22.0474 0.0895429 21.9237 0.0448758 21.773 0.0448758H18.6767C18.5261 0.0448758 18.4025 0.0895429 18.3056 0.178877C18.2089 0.268315 18.1606 0.382644 18.1606 0.52155V3.42663L14.2258 0.387341C13.8821 0.129096 13.4735 0 13.0004 0C12.5273 0 12.1188 0.129096 11.7748 0.387341L0.179203 9.31141C0.0717112 9.39073 0.0127971 9.49749 0.00183902 9.63159C-0.00906263 9.76559 0.0285 9.88264 0.11464 9.98188L1.11448 11.0844C1.20062 11.1737 1.31337 11.2283 1.45317 11.2483C1.58224 11.2583 1.71131 11.2235 1.84038 11.1441L13 2.54764L24.1598 11.144C24.246 11.2133 24.3587 11.2479 24.4985 11.2479H24.547C24.6865 11.2283 24.7991 11.1733 24.8857 11.0842L25.8856 9.98183C25.9716 9.88238 26.0093 9.76554 25.9981 9.63138C25.9871 9.49764 25.9279 9.39088 25.8207 9.31141Z" fill="#FF3B00"/>
</svg>
