<svg width="24" height="24" viewBox="0 0 24 24" fill="none" xmlns="http://www.w3.org/2000/svg">
<path d="M12 0C5.38338 0 0 5.38302 0 12C0 18.617 5.38338 24 12 24C18.6166 24 24 18.617 24 12C24 5.38302 18.6166 0 12 0ZM12 22.5231C6.19754 22.5231 1.47692 17.8025 1.47692 12C1.47692 6.19754 6.19754 1.47692 12 1.47692C17.8025 1.47692 22.5231 6.19754 22.5231 12C22.5231 17.8025 17.8025 22.5231 12 22.5231Z" fill="#7D7D7D"/>
<path d="M12.0007 8.47601C12.6828 8.47601 13.2358 7.92305 13.2358 7.24094C13.2358 6.55882 12.6828 6.00586 12.0007 6.00586C11.3186 6.00586 10.7656 6.55882 10.7656 7.24094C10.7656 7.92305 11.3186 8.47601 12.0007 8.47601Z" fill="#7D7D7D"/>
<path d="M11.8674 10.4648C11.4597 10.4648 11.1289 10.7957 11.1289 11.2033V17.4802C11.1289 17.8879 11.4597 18.2187 11.8674 18.2187C12.275 18.2187 12.6058 17.8879 12.6058 17.4802V11.2033C12.6058 10.7953 12.275 10.4648 11.8674 10.4648Z" fill="#7D7D7D"/>
</svg>
