<svg width="32" height="32" viewBox="0 0 32 32" fill="none" xmlns="http://www.w3.org/2000/svg">
<path d="M16 8.25806C11.7311 8.25806 8.25806 11.7311 8.25806 16C8.25806 20.2689 11.7311 23.7419 16 23.7419C18.7234 23.7419 21.1211 22.3272 22.5015 20.1954C23.5109 21.1156 24.8524 21.6774 26.3226 21.6774C29.4531 21.6774 32 19.1305 32 16C32 7.17762 24.8225 0 16 0C7.1775 0 0 7.17762 0 16C0 24.8224 7.1775 32 16 32C20.2738 32 24.2917 30.3357 27.3137 27.3137L25.124 25.124C22.6869 27.5611 19.4466 28.9032 16 28.9032C8.88519 28.9032 3.09675 23.1149 3.09675 16C3.09675 8.88512 8.88519 3.09675 16 3.09675C23.1148 3.09675 28.9032 8.88519 28.9032 16C28.9032 17.4229 27.7456 18.5806 26.3226 18.5806C24.8997 18.5806 23.742 17.4229 23.742 16.0001V16C23.7419 11.7311 20.2689 8.25806 16 8.25806ZM16 20.6452C13.4386 20.6452 11.3548 18.5614 11.3548 16C11.3548 13.4386 13.4385 11.3548 16 11.3548C18.5615 11.3548 20.6452 13.4386 20.6452 16C20.6452 18.5613 18.5614 20.6452 16 20.6452Z" fill="#F89C07"/>
</svg>
