<svg width="32" height="32" viewBox="0 0 32 32" fill="none" xmlns="http://www.w3.org/2000/svg">
<g clip-path="url(#clip0)">
<path d="M14.427 22.5399C11.9462 22.2811 9.70946 21.6702 7.79444 20.1724C7.55683 19.9861 7.3115 19.8064 7.09466 19.5983C6.25646 18.7933 6.17201 17.8713 6.83526 16.9211C7.40266 16.1081 8.35514 15.8906 9.34516 16.3574C9.53686 16.4479 9.71952 16.5609 9.89446 16.6822C13.4634 19.1344 18.3663 19.2021 21.9486 16.7925C22.3036 16.5203 22.6829 16.2984 23.1227 16.1852C23.9776 15.9656 24.7749 16.2797 25.2337 17.0277C25.7579 17.882 25.7512 18.7159 25.1054 19.3791C24.1147 20.3959 22.9232 21.1316 21.5994 21.645C20.3476 22.1303 18.9766 22.3746 17.6196 22.5368C17.8243 22.7597 17.9209 22.8693 18.0489 22.998C19.8915 24.8493 21.7422 26.693 23.5788 28.55C24.2045 29.1828 24.3352 29.9673 23.9907 30.7033C23.614 31.5077 22.7707 32.0369 21.9439 31.9802C21.4201 31.944 21.0116 31.6833 20.6486 31.3176C19.2581 29.9184 17.8414 28.545 16.4791 27.1193C16.0826 26.7047 15.8919 26.7831 15.542 27.1431C14.1431 28.5832 12.7214 30.0012 11.2914 31.4112C10.6492 32.0442 9.88508 32.1582 9.14039 31.7966C8.34877 31.4128 7.84505 30.6048 7.88393 29.7927C7.91074 29.2434 8.18087 28.8238 8.5579 28.4475C10.3814 26.6266 12.1999 24.8011 14.0191 22.9772C14.1394 22.8559 14.2517 22.7272 14.427 22.5399Z" fill="white"/>
<path d="M15.939 16.1972C11.5134 16.1822 7.88449 12.5133 7.91029 8.08069C7.93576 3.59913 11.5671 -0.0123991 16.0362 1.31999e-06C20.5144 0.0120665 24.1089 3.67554 24.0864 8.20369C24.0636 12.6273 20.4095 16.2127 15.939 16.1972ZM19.9611 8.09141C19.9534 5.89051 18.2006 4.13837 16.004 4.13636C13.7891 4.13402 12.0205 5.918 12.0376 8.139C12.054 10.3315 13.8219 12.0713 16.0245 12.0632C18.2204 12.0555 19.9685 10.292 19.9611 8.09141Z" fill="white"/>
</g>
<defs>
<clipPath id="clip0">
<rect width="32" height="32" fill="white"/>
</clipPath>
</defs>
</svg>
