<svg width="16" height="16" viewBox="0 0 16 16" fill="none" xmlns="http://www.w3.org/2000/svg">
<path d="M1.40854 6.66667C1.97051 6.66667 2.47813 6.35877 2.6955 5.88575C3.59303 3.93447 5.70346 2.55931 8.16381 2.55931C9.51983 2.55931 10.763 2.98342 11.7597 3.68685L10.9785 3.7972C10.7116 3.83495 10.5041 4.02813 10.4679 4.27229C10.4317 4.51631 10.5758 4.75307 10.8219 4.85397L15.118 6.61759C15.3063 6.69476 15.5244 6.67992 15.698 6.57814C15.8713 6.4762 15.9766 6.30125 15.9777 6.11301L16 1.79355C16.0015 1.54782 15.826 1.33051 15.5686 1.25888C15.3108 1.18725 15.0324 1.27816 14.8832 1.48271L14.2911 2.29476C12.7123 0.876641 10.5491 0 8.16381 0C4.54713 0 1.4376 2.01538 0.111391 4.87983C-0.072799 5.27687 -0.0263748 5.73149 0.234412 6.09069C0.495198 6.45001 0.936013 6.66667 1.40854 6.66667Z" fill="#2B2B2B"/>
<path d="M15.7855 9.90931C15.5484 9.54995 15.1476 9.33333 14.7181 9.33333C14.2072 9.33333 13.7458 9.64122 13.5481 10.1142C12.7322 12.0655 10.8136 13.4407 8.57696 13.4407C7.34418 13.4407 6.21401 13.0166 5.3079 12.3132L6.01812 12.2029C6.26068 12.1651 6.44939 11.9719 6.48233 11.7277C6.51524 11.4837 6.38423 11.2469 6.16052 11.146L2.25501 9.3824C2.08378 9.30527 1.88548 9.32004 1.72765 9.42185C1.57016 9.5238 1.47443 9.69874 1.47342 9.88695L1.45313 14.2064C1.45176 14.4522 1.61132 14.6695 1.8453 14.7411C2.07963 14.8127 2.33283 14.7218 2.46837 14.5172L3.00668 13.7052C4.44187 15.1233 6.40852 16 8.57693 16C11.8649 16 14.6916 13.9846 15.8972 11.1202C16.0648 10.7231 16.0226 10.2685 15.7855 9.90931Z" fill="#2B2B2B"/>
</svg>
