<svg width="56" height="56" viewBox="0 0 44 44" fill="none" xmlns="http://www.w3.org/2000/svg">
<g clip-path="url(#clip0)">
<path d="M5.99915 32.0198C4.33246 32.0198 2.91629 32.6033 1.74942 33.7697C0.583323 34.936 0 36.3527 0 38.0194C0 39.6866 0.582776 41.1029 1.74942 42.2692C2.91629 43.4357 4.3329 44.0192 5.99915 44.0192C7.66561 44.0192 9.0819 43.4357 10.2485 42.2692C11.4148 41.1029 11.9981 39.6866 11.9981 38.0194C11.9981 36.3526 11.4148 34.936 10.2485 33.7697C9.08222 32.6033 7.66594 32.0198 5.99915 32.0198Z" fill="#2B2B2B"/>
<path d="M19.81 24.2072C17.4559 21.8323 14.7584 19.9418 11.717 18.5358C8.67565 17.1293 5.48827 16.2908 2.15556 16.02H1.99961C1.45798 16.02 1.01004 16.1972 0.656211 16.5513C0.218555 16.9258 0 17.4158 0 18.0198V22.2385C0 22.7591 0.171714 23.2071 0.515251 23.5824C0.858897 23.9577 1.29108 24.166 1.81191 24.2072C6.58203 24.6657 10.6597 26.588 14.0445 29.9729C17.4295 33.3578 19.3513 37.4361 19.8096 42.2065C19.8514 42.7279 20.0595 43.1601 20.4347 43.5032C20.8098 43.8478 21.2574 44.0198 21.7781 44.0198H25.9965C26.6003 44.0198 27.0897 43.8015 27.4647 43.3635C27.861 42.9463 28.0377 42.4462 27.9969 41.8631C27.7257 38.5306 26.8872 35.3426 25.4812 32.3012C24.0753 29.2593 22.1847 26.5617 19.81 24.2072Z" fill="#2B2B2B"/>
<path d="M40.2447 26.2537C38.0159 21.2643 34.9538 16.8322 31.0586 12.9572C27.1839 9.06134 22.7525 5.99908 17.7631 3.76986C12.7743 1.54108 7.55103 0.290805 2.09318 0.0200195H1.99961C1.45798 0.0200195 0.999748 0.207512 0.624692 0.582605C0.208267 0.957261 0 1.43677 0 2.02015V6.48855C0 7.00954 0.182439 7.46235 0.54677 7.84784C0.91121 8.23344 1.35368 8.43626 1.87451 8.45749C6.3533 8.72871 10.6078 9.7915 14.6387 11.6455C18.6694 13.4996 22.1689 15.9111 25.1374 18.8792C28.1052 21.8479 30.5163 25.348 32.3703 29.3791C34.2242 33.4109 35.2767 37.6652 35.5265 42.1442C35.5478 42.6657 35.7504 43.1084 36.1354 43.4729C36.5211 43.8372 36.9849 44.02 37.5264 44.02H41.9941C42.5776 44.02 43.0558 43.8118 43.4315 43.3945C43.8484 42.9779 44.0353 42.4889 43.9945 41.9262C43.7241 36.4674 42.4735 31.2436 40.2447 26.2537Z" fill="#2B2B2B"/>
</g>
<defs>
<clipPath id="clip0">
<rect width="44" height="44" fill="white"/>
</clipPath>
</defs>
</svg>
