<svg width="4" height="16" viewBox="0 0 4 16" fill="none" xmlns="http://www.w3.org/2000/svg">
<path d="M3.33331 11.9999H0.666727C0.486136 11.9999 0.329879 12.072 0.197884 12.2159C0.0659977 12.3598 0 12.5302 0 12.7272V15.2726C0 15.4695 0.0659977 15.64 0.197884 15.7842C0.329989 15.9279 0.4861 15.9999 0.666727 15.9999H3.33353C3.51383 15.9999 3.67016 15.9279 3.80226 15.7842C3.93397 15.6401 4 15.4696 4 15.2726V12.7272C4 12.5302 3.93386 12.3599 3.80201 12.2159C3.67005 12.0719 3.51372 11.9999 3.33331 11.9999Z" fill="#2B2B2B"/>
<path d="M3.84186 0.212027C3.73078 0.0708319 3.59721 0 3.44098 0H0.558822C0.402725 0 0.269215 0.0708319 0.158073 0.212027C0.0469933 0.353417 -0.0055336 0.520919 0.000460455 0.714339L0.252589 9.28551C0.258583 9.47892 0.32007 9.64654 0.437206 9.7877C0.55428 9.92925 0.690881 10 0.847042 10H3.15308C3.30899 10 3.44556 9.92925 3.56292 9.7877C3.67996 9.64658 3.74126 9.47896 3.74753 9.28551L3.9995 0.714339C4.00575 0.520919 3.95297 0.353573 3.84186 0.212027Z" fill="#2B2B2B"/>
</svg>
