<svg width="32" height="20" viewBox="0 0 32 20" fill="none" xmlns="http://www.w3.org/2000/svg">
<path d="M29.6057 5.92567C29.6057 7.55483 28.2798 8.87607 26.6446 8.87607C25.0076 8.87607 23.6828 7.55483 23.6828 5.92567C23.6828 4.29651 25.0084 2.97563 26.6446 2.97563C28.2798 2.97563 29.6057 4.29651 29.6057 5.92567ZM28.4124 10.9106L24.8263 13.9662C24.8651 14.2101 24.8914 14.4579 24.8914 14.7122C24.8914 17.3134 22.7744 19.4226 20.1639 19.4226C17.9118 19.4226 16.0313 17.8531 15.5548 15.7532L6.69049 12.757C5.99004 13.2867 5.11929 13.6053 4.17209 13.6053C1.86809 13.605 0 11.7433 0 9.4478C0 7.15269 1.86809 5.29207 4.17209 5.29207C6.15324 5.29207 7.808 6.66807 8.23502 8.51162L16.7979 11.4062C17.632 10.5639 18.7822 10.0359 20.0569 10.0074L21.3394 6.12336C21.3355 6.0462 21.3276 5.97011 21.3276 5.89225C21.3276 2.95714 23.717 0.577759 26.6638 0.577759C29.6103 0.577759 32 2.95714 32 5.89225C32 8.21758 30.4992 10.1888 28.4124 10.9106ZM6.79538 8.02522C6.29689 7.13136 5.34009 6.52585 4.24107 6.52585C2.62756 6.52585 1.31947 7.82896 1.31947 9.43607C1.31947 11.0432 2.62756 12.3459 4.24107 12.3459C4.53938 12.3459 4.82667 12.3015 5.0976 12.2186L3.70951 11.7497C2.59093 11.153 2.16996 9.76602 2.76907 8.65171C3.36853 7.53811 4.76089 7.11927 5.8784 7.71589L6.79538 8.02522ZM22.5024 5.90505C22.5024 8.18487 24.3577 10.033 26.6464 10.033C28.9351 10.033 30.7915 8.18487 30.7915 5.90505C30.7915 3.62416 28.9348 1.77598 26.6464 1.77598C24.3577 1.77598 22.5024 3.62416 22.5024 5.90505ZM22.5842 15.1161C22.5842 13.3806 21.1716 11.973 19.4293 11.973C19.1847 11.973 18.9486 12.0035 18.7204 12.0554L20.4836 12.6514C21.6018 13.2487 22.0217 14.6354 21.4229 15.7486C20.8238 16.864 19.4315 17.2818 18.314 16.6855L16.4139 16.043C16.8107 17.3262 18.0107 18.2588 19.4293 18.2588C21.1716 18.2592 22.5842 16.8515 22.5842 15.1161Z" fill="white"/>
</svg>
