<svg width="42" height="43" viewBox="0 0 42 43" fill="none" xmlns="http://www.w3.org/2000/svg">
<path d="M39.766 0.582031H2.23404C0.999957 0.582031 0 1.58244 0 2.81607V40.348C0 41.5816 0.999957 42.582 2.23404 42.582H39.766C41 42.582 42 41.5816 42 40.348V2.81607C42 1.58244 41 0.582031 39.766 0.582031ZM33.4521 24.2374C34.5968 25.3544 35.8072 26.4062 36.8353 27.6408C37.2902 28.1859 37.7191 28.7488 38.0457 29.3829C38.5109 30.2872 38.0909 31.2805 37.2804 31.3336L32.2511 31.3323C30.9527 31.4391 29.9187 30.9163 29.0466 30.0285C28.3518 29.3203 27.7057 28.5643 27.0359 27.8329C26.7629 27.5322 26.4734 27.2493 26.1311 27.0259C25.4457 26.5809 24.8501 26.7168 24.4565 27.4321C24.0562 28.1604 23.9637 28.9682 23.927 29.7801C23.8712 30.9664 23.5137 31.276 22.3239 31.3309C19.7816 31.4507 17.3683 31.0646 15.1267 29.7836C13.1478 28.6532 11.6175 27.0563 10.2842 25.2503C7.68555 21.7281 5.69547 17.8619 3.90823 13.8849C3.50566 12.989 3.80011 12.5096 4.78711 12.4913C6.42957 12.4586 8.0716 12.4631 9.71183 12.4895C10.3803 12.4998 10.8221 12.8822 11.0782 13.5122C11.9651 15.6949 13.0535 17.7716 14.4163 19.6974C14.7795 20.2099 15.1504 20.7215 15.6776 21.0838C16.2603 21.4842 16.7044 21.3524 16.9792 20.7023C17.1548 20.2876 17.2307 19.8471 17.2683 19.4038C17.3987 17.8865 17.4144 16.3691 17.1892 14.8576C17.0484 13.9121 16.5158 13.3013 15.5731 13.1226C15.0932 13.0315 15.1633 12.8536 15.3966 12.5797C15.8014 12.1052 16.183 11.8121 16.9407 11.8121L21.4621 11.8114C22.2353 11.8113 23.2049 11.7137 23.5927 12.3826C23.723 12.6073 23.7897 12.9027 23.8421 13.2906L23.8475 19.6054C23.8381 19.9548 24.0222 20.9896 24.6495 21.2183C25.1513 21.3841 25.4842 20.9815 25.7844 20.6625C27.1463 19.2171 28.1168 17.5098 28.9867 15.7436C29.3696 14.9648 29.7016 14.1579 30.0233 13.3505C30.2614 12.7531 30.6341 12.4591 31.3079 12.4698L36.7795 12.4756C36.9403 12.4756 37.1052 12.4774 37.2647 12.5038C38.186 12.6624 38.4385 13.0592 38.1539 13.959C37.7053 15.3723 36.8318 16.5501 35.9775 17.7305C35.0646 18.9928 34.0901 20.2135 33.184 21.4819C32.3539 22.6454 32.4209 23.2299 33.4521 24.2374Z" fill="white"/>
</svg>
