<svg width="32" height="33" viewBox="0 0 32 33" fill="none" xmlns="http://www.w3.org/2000/svg">
<g clip-path="url(#clip0)">
<path d="M31.8304 23.6932C31.7916 23.6097 31.7555 23.5404 31.7219 23.4849C31.1667 22.485 30.1058 21.2576 28.5397 19.8025L28.5066 19.7692L28.49 19.7528L28.4733 19.7361H28.4564C27.7457 19.0585 27.2956 18.6029 27.1071 18.3697C26.7622 17.9254 26.6849 17.4756 26.8734 17.0199C27.0066 16.6756 27.5068 15.9485 28.3729 14.8376C28.8285 14.2488 29.1893 13.7769 29.4558 13.4214C31.3775 10.8666 32.2107 9.23405 31.9551 8.5231L31.8558 8.35696C31.7891 8.25694 31.617 8.16543 31.3396 8.08198C31.0616 7.99871 30.7062 7.98494 30.273 8.04043L25.4747 8.07358C25.397 8.04604 25.286 8.0486 25.1414 8.08198C24.9969 8.11536 24.9247 8.13211 24.9247 8.13211L24.8412 8.17384L24.7749 8.22396C24.7193 8.25711 24.6582 8.31541 24.5915 8.39874C24.5252 8.48178 24.4697 8.57924 24.4253 8.69029C23.9029 10.0343 23.309 11.2839 22.6424 12.439C22.2314 13.1277 21.8539 13.7247 21.5092 14.2301C21.165 14.7353 20.8762 15.1076 20.6431 15.3462C20.4097 15.5851 20.199 15.7764 20.0098 15.921C19.8209 16.0656 19.6767 16.1267 19.5769 16.1043C19.4768 16.082 19.3826 16.0598 19.2933 16.0376C19.1379 15.9376 19.0129 15.8016 18.9187 15.6294C18.824 15.4573 18.7603 15.2406 18.727 14.9796C18.6938 14.7183 18.6742 14.4937 18.6686 14.3048C18.6634 14.1161 18.6658 13.8493 18.6771 13.505C18.6886 13.1605 18.6938 12.9274 18.6938 12.8052C18.6938 12.3831 18.7021 11.9249 18.7186 11.4306C18.7354 10.9364 18.749 10.5447 18.7604 10.2562C18.7717 9.96741 18.7769 9.66186 18.7769 9.33973C18.7769 9.01761 18.7573 8.76498 18.7186 8.58163C18.6803 8.39851 18.6215 8.22075 18.5441 8.04843C18.4662 7.87628 18.3522 7.74311 18.2025 7.64857C18.0526 7.55415 17.8662 7.47922 17.6444 7.42355C17.0557 7.29033 16.306 7.21826 15.395 7.20705C13.3291 7.18488 12.0017 7.31828 11.413 7.60708C11.1797 7.7291 10.9687 7.89583 10.7799 8.10673C10.58 8.35118 10.5521 8.48458 10.6964 8.50652C11.363 8.60637 11.8348 8.84522 12.1126 9.22284L12.2126 9.42295C12.2905 9.56732 12.3682 9.82292 12.446 10.1894C12.5237 10.5559 12.5738 10.9613 12.5959 11.4054C12.6513 12.2163 12.6513 12.9105 12.5959 13.488C12.5402 14.0658 12.4877 14.5155 12.4376 14.8376C12.3875 15.1598 12.3125 15.4208 12.2126 15.6207C12.1126 15.8206 12.046 15.9428 12.0126 15.9871C11.9793 16.0315 11.9515 16.0594 11.9294 16.0704C11.7851 16.1257 11.6349 16.1539 11.4795 16.1539C11.3239 16.1539 11.1351 16.0761 10.913 15.9205C10.691 15.7649 10.4606 15.5512 10.2217 15.279C9.98285 15.0068 9.71348 14.6264 9.41347 14.1377C9.1137 13.649 8.80266 13.0715 8.48053 12.4051L8.21402 11.9218C8.04741 11.6108 7.81983 11.1581 7.53102 10.564C7.24204 9.96963 6.98662 9.3947 6.76457 8.83933C6.67581 8.60608 6.54247 8.4285 6.36478 8.30631L6.28139 8.25618C6.22595 8.21183 6.13695 8.16473 6.01487 8.11455C5.89262 8.06442 5.76505 8.02847 5.63165 8.00635L1.06651 8.0395C0.600017 8.0395 0.283494 8.14518 0.116829 8.35626L0.0501278 8.4561C0.0168065 8.51172 0 8.60054 0 8.72279C0 8.84499 0.0333213 8.99496 0.100022 9.17254C0.766448 10.7388 1.49117 12.2494 2.27419 13.7044C3.05721 15.1595 3.73765 16.3315 4.31508 17.2196C4.89263 18.1083 5.48132 18.9471 6.08117 19.7355C6.68101 20.5241 7.07806 21.0296 7.27233 21.2516C7.46683 21.4741 7.61961 21.6404 7.73066 21.7514L8.14726 22.1512C8.41383 22.4178 8.80529 22.7372 9.32179 23.1092C9.83842 23.4814 10.4104 23.8479 11.0379 24.2092C11.6656 24.5699 12.3958 24.8642 13.229 25.0919C14.062 25.3198 14.8728 25.4112 15.6615 25.3671H17.5775C17.9661 25.3335 18.2605 25.2113 18.4606 25.0005L18.5269 24.9169C18.5715 24.8507 18.6132 24.7477 18.6518 24.6091C18.6907 24.4702 18.7101 24.3173 18.7101 24.1509C18.6987 23.6734 18.7351 23.243 18.8182 22.8598C18.9012 22.4768 18.9959 22.188 19.1017 21.9935C19.2075 21.7992 19.3269 21.6352 19.4598 21.5022C19.593 21.369 19.6879 21.2883 19.7435 21.2605C19.7989 21.2326 19.843 21.2136 19.8764 21.2022C20.1429 21.1134 20.4567 21.1994 20.818 21.4607C21.179 21.7217 21.5177 22.044 21.8344 22.4271C22.151 22.8105 22.5314 23.2406 22.9756 23.7181C23.4201 24.1958 23.8087 24.5509 24.1418 24.7845L24.4749 24.9845C24.6974 25.1179 24.9862 25.2401 25.3417 25.3511C25.6966 25.4621 26.0075 25.4899 26.2745 25.4344L30.5395 25.3679C30.9614 25.3679 31.2896 25.298 31.5225 25.1594C31.7558 25.0206 31.8944 24.8676 31.9391 24.7013C31.9837 24.5347 31.9861 24.3458 31.9475 24.1345C31.908 23.9238 31.8691 23.7764 31.8304 23.6932Z" fill="white"/>
</g>
<defs>
<clipPath id="clip0">
<rect width="32" height="32" fill="white" transform="translate(0 0.333344)"/>
</clipPath>
</defs>
</svg>
