<svg width="56" height="40" viewBox="0 0 56 40" fill="none" xmlns="http://www.w3.org/2000/svg">
<path d="M53.8173 3.6778C51.7958 1.27486 48.0637 0.294678 40.9362 0.294678H15.0633C7.77262 0.294678 3.97726 1.33808 1.96343 3.89638C0 6.39073 0 10.066 0 15.1526V24.8476C0 34.702 2.3296 39.7053 15.0633 39.7053H40.9364C47.1173 39.7053 50.5423 38.8404 52.7581 36.7198C55.0305 34.5452 56 30.9946 56 24.8476V15.1526C56 9.7883 55.8481 6.0914 53.8173 3.6778ZM35.9522 21.3386L24.2034 27.4789C23.9407 27.6162 23.6535 27.6843 23.3666 27.6843C23.0418 27.6843 22.7178 27.5968 22.4307 27.4231C21.8902 27.0956 21.5602 26.5097 21.5602 25.8778V13.6366C21.5602 13.0058 21.8893 12.4205 22.4287 12.0928C22.9683 11.7651 23.6394 11.7427 24.1992 12.0335L35.948 18.1343C36.5458 18.4446 36.9212 19.0617 36.9221 19.735C36.9228 20.4088 36.549 21.0268 35.9522 21.3386Z" fill="#FF3B00"/>
</svg>
